 <svg
              width="100%"
              height="100%"
              preserveAspectRatio="none"
              viewBox="0 0 12 12"
              fill="none"
              xmlns="http://www.w3.org/2000/svg"
            >
              <path
                d="M 10.207 1.95 L 2.066 5.113 L 4.481 6.116 C 5.186 6.409 5.747 6.97 6.04 7.676 L 7.043 10.09 L 10.207 1.95 Z M 11.13 2.291 L 7.966 10.432 C 7.766 10.947 7.191 11.21 6.681 11.022 C 6.556 10.976 6.443 10.905 6.347 10.813 C 6.252 10.721 6.176 10.61 6.126 10.488 L 5.122 8.073 C 4.927 7.603 4.553 7.229 4.083 7.034 L 1.669 6.031 C 1.167 5.823 0.938 5.243 1.157 4.736 C 1.211 4.612 1.289 4.5 1.386 4.406 C 1.484 4.313 1.599 4.239 1.725 4.19 L 9.865 1.026 C 10.042 0.955 10.236 0.937 10.422 0.976 C 10.609 1.014 10.781 1.106 10.915 1.241 C 11.05 1.375 11.142 1.547 11.181 1.734 C 11.219 1.92 11.201 2.114 11.13 2.291 Z"
                fill="black"
              />
            </svg>